# xmcd
#
# Track frame offsets: 
#        150
#        12628
#        27346
#        38908
#        52410
#        64638
#        79272
#        95761
#        108973
#        120986
#        134250
#        149397
#        164575
#        177593
#
# Disc length: 2519 seconds
#
# Revision: 4
# Processed by: cddbd v1.5.2PL0 Copyright (c) Steve Scherf et al.
# Submitted via: ExactAudioCopy v1.0b3
#
DISCID=cc09d50e
DTITLE=Muddy Waters - Treasures From The Blues, Disc 2
DYEAR=2008
DGENRE=Blues
TTITLE0=I'm your hoochie coochie man
TTITLE1=Baby please don't go
TTITLE2=Gypsy woman
TTITLE3=Rollin' and tumblin'
TTITLE4=I can't be satisfied
TTITLE5=Streamline woman
TTITLE6=You're gonna miss me when I'm gone
TTITLE7=Burr Clover farm blues
TTITLE8=Long distance call
TTITLE9=Walkin' blues
TTITLE10=Honey bee
TTITLE11=32-20 blues
TTITLE12=Louisiana blues
TTITLE13=Little Anna Mea
EXTD=
EXTT0=
EXTT1=
EXTT2=
EXTT3=
EXTT4=
EXTT5=
EXTT6=
EXTT7=
EXTT8=
EXTT9=
EXTT10=
EXTT11=
EXTT12=
EXTT13=
PLAYORDER=
